<mxfile host="app.diagrams.net" modified="2024-05-23T12:50:27.765Z" agent="Mozilla/5.0 (Windows NT 10.0; Win64; x64) AppleWebKit/537.36 (KHTML, like Gecko) Chrome/125.0.0.0 Safari/537.36" etag="1OSiEHtGcTToyJuiHbYx" version="24.4.6" type="device">
  <diagram name="PÃ¡gina-1" id="57h14LFNAcv8_pznqVjz">
    <mxGraphModel dx="1687" dy="2047" grid="1" gridSize="10" guides="1" tooltips="1" connect="1" arrows="1" fold="1" page="1" pageScale="1" pageWidth="827" pageHeight="1169" math="0" shadow="0">
      <root>
        <mxCell id="0" />
        <mxCell id="1" parent="0" />
        <mxCell id="87pAXM2hmbZrz4piwAN0-4" style="edgeStyle=orthogonalEdgeStyle;rounded=0;orthogonalLoop=1;jettySize=auto;html=1;entryX=0;entryY=0.5;entryDx=0;entryDy=0;" edge="1" parent="1" source="87pAXM2hmbZrz4piwAN0-2" target="87pAXM2hmbZrz4piwAN0-3">
          <mxGeometry relative="1" as="geometry" />
        </mxCell>
        <mxCell id="87pAXM2hmbZrz4piwAN0-2" value="ENTIDADES" style="rounded=0;whiteSpace=wrap;html=1;" vertex="1" parent="1">
          <mxGeometry x="140" y="-995" width="160" height="90" as="geometry" />
        </mxCell>
        <mxCell id="87pAXM2hmbZrz4piwAN0-7" style="edgeStyle=orthogonalEdgeStyle;rounded=0;orthogonalLoop=1;jettySize=auto;html=1;exitX=1;exitY=0.5;exitDx=0;exitDy=0;entryX=0;entryY=0.5;entryDx=0;entryDy=0;" edge="1" parent="1" source="87pAXM2hmbZrz4piwAN0-3" target="87pAXM2hmbZrz4piwAN0-6">
          <mxGeometry relative="1" as="geometry" />
        </mxCell>
        <mxCell id="87pAXM2hmbZrz4piwAN0-3" value="RELACIONAMENTOS" style="rhombus;whiteSpace=wrap;html=1;" vertex="1" parent="1">
          <mxGeometry x="350" y="-1005" width="140" height="110" as="geometry" />
        </mxCell>
        <mxCell id="87pAXM2hmbZrz4piwAN0-6" value="ENTIDADES" style="rounded=0;whiteSpace=wrap;html=1;" vertex="1" parent="1">
          <mxGeometry x="550" y="-995" width="160" height="90" as="geometry" />
        </mxCell>
        <mxCell id="87pAXM2hmbZrz4piwAN0-8" style="edgeStyle=orthogonalEdgeStyle;rounded=0;orthogonalLoop=1;jettySize=auto;html=1;entryX=0;entryY=0.5;entryDx=0;entryDy=0;" edge="1" parent="1" source="87pAXM2hmbZrz4piwAN0-9" target="87pAXM2hmbZrz4piwAN0-11">
          <mxGeometry relative="1" as="geometry" />
        </mxCell>
        <mxCell id="87pAXM2hmbZrz4piwAN0-9" value="PESSOA" style="rounded=0;whiteSpace=wrap;html=1;" vertex="1" parent="1">
          <mxGeometry x="140" y="-850" width="160" height="90" as="geometry" />
        </mxCell>
        <mxCell id="87pAXM2hmbZrz4piwAN0-10" style="edgeStyle=orthogonalEdgeStyle;rounded=0;orthogonalLoop=1;jettySize=auto;html=1;exitX=1;exitY=0.5;exitDx=0;exitDy=0;entryX=0;entryY=0.5;entryDx=0;entryDy=0;" edge="1" parent="1" source="87pAXM2hmbZrz4piwAN0-11" target="87pAXM2hmbZrz4piwAN0-12">
          <mxGeometry relative="1" as="geometry" />
        </mxCell>
        <mxCell id="87pAXM2hmbZrz4piwAN0-11" value="TRABALHA" style="rhombus;whiteSpace=wrap;html=1;" vertex="1" parent="1">
          <mxGeometry x="350" y="-860" width="140" height="110" as="geometry" />
        </mxCell>
        <mxCell id="87pAXM2hmbZrz4piwAN0-12" value="EMPRESA" style="rounded=0;whiteSpace=wrap;html=1;" vertex="1" parent="1">
          <mxGeometry x="550" y="-850" width="160" height="90" as="geometry" />
        </mxCell>
        <mxCell id="87pAXM2hmbZrz4piwAN0-13" value="&lt;font style=&quot;font-size: 24px;&quot;&gt;&lt;b&gt;1 PARA 1 1:1&lt;/b&gt;&lt;/font&gt;" style="text;strokeColor=none;align=center;fillColor=none;html=1;verticalAlign=middle;whiteSpace=wrap;rounded=0;" vertex="1" parent="1">
          <mxGeometry x="279" y="-1169" width="270" height="90" as="geometry" />
        </mxCell>
        <mxCell id="87pAXM2hmbZrz4piwAN0-14" value="&lt;font style=&quot;font-size: 24px;&quot;&gt;&lt;b&gt;1 PARA MUITOS 1:N&lt;/b&gt;&lt;/font&gt;" style="text;strokeColor=none;align=center;fillColor=none;html=1;verticalAlign=middle;whiteSpace=wrap;rounded=0;" vertex="1" parent="1">
          <mxGeometry x="285" y="-710" width="270" height="90" as="geometry" />
        </mxCell>
        <mxCell id="87pAXM2hmbZrz4piwAN0-15" style="edgeStyle=orthogonalEdgeStyle;rounded=0;orthogonalLoop=1;jettySize=auto;html=1;entryX=0;entryY=0.5;entryDx=0;entryDy=0;" edge="1" parent="1" source="87pAXM2hmbZrz4piwAN0-16" target="87pAXM2hmbZrz4piwAN0-18">
          <mxGeometry relative="1" as="geometry" />
        </mxCell>
        <mxCell id="87pAXM2hmbZrz4piwAN0-16" value="RESTAURANTE" style="rounded=0;whiteSpace=wrap;html=1;" vertex="1" parent="1">
          <mxGeometry x="135" y="-590" width="160" height="90" as="geometry" />
        </mxCell>
        <mxCell id="87pAXM2hmbZrz4piwAN0-17" style="edgeStyle=orthogonalEdgeStyle;rounded=0;orthogonalLoop=1;jettySize=auto;html=1;exitX=1;exitY=0.5;exitDx=0;exitDy=0;entryX=0;entryY=0.5;entryDx=0;entryDy=0;" edge="1" parent="1" source="87pAXM2hmbZrz4piwAN0-18" target="87pAXM2hmbZrz4piwAN0-19">
          <mxGeometry relative="1" as="geometry" />
        </mxCell>
        <mxCell id="87pAXM2hmbZrz4piwAN0-18" value="POSSUI" style="rhombus;whiteSpace=wrap;html=1;" vertex="1" parent="1">
          <mxGeometry x="345" y="-600" width="140" height="110" as="geometry" />
        </mxCell>
        <mxCell id="87pAXM2hmbZrz4piwAN0-19" value="PRATOS" style="rounded=0;whiteSpace=wrap;html=1;" vertex="1" parent="1">
          <mxGeometry x="545" y="-590" width="160" height="90" as="geometry" />
        </mxCell>
        <mxCell id="87pAXM2hmbZrz4piwAN0-20" value="&lt;font style=&quot;font-size: 19px;&quot;&gt;&lt;b&gt;1&lt;/b&gt;&lt;/font&gt;" style="text;html=1;align=center;verticalAlign=middle;resizable=0;points=[];autosize=1;strokeColor=none;fillColor=none;" vertex="1" parent="1">
          <mxGeometry x="305" y="-587" width="30" height="40" as="geometry" />
        </mxCell>
        <mxCell id="87pAXM2hmbZrz4piwAN0-21" value="&lt;font style=&quot;font-size: 19px;&quot;&gt;&lt;b&gt;N&lt;/b&gt;&lt;/font&gt;" style="text;html=1;align=center;verticalAlign=middle;resizable=0;points=[];autosize=1;strokeColor=none;fillColor=none;" vertex="1" parent="1">
          <mxGeometry x="500" y="-587" width="40" height="40" as="geometry" />
        </mxCell>
        <mxCell id="87pAXM2hmbZrz4piwAN0-22" value="&lt;font style=&quot;font-size: 24px;&quot;&gt;&lt;b&gt;MUITOS PARA 1 N:1&lt;/b&gt;&lt;/font&gt;" style="text;strokeColor=none;align=center;fillColor=none;html=1;verticalAlign=middle;whiteSpace=wrap;rounded=0;" vertex="1" parent="1">
          <mxGeometry x="285" y="-430" width="270" height="90" as="geometry" />
        </mxCell>
        <mxCell id="87pAXM2hmbZrz4piwAN0-23" style="edgeStyle=orthogonalEdgeStyle;rounded=0;orthogonalLoop=1;jettySize=auto;html=1;entryX=0;entryY=0.5;entryDx=0;entryDy=0;" edge="1" parent="1" source="87pAXM2hmbZrz4piwAN0-24" target="87pAXM2hmbZrz4piwAN0-26">
          <mxGeometry relative="1" as="geometry" />
        </mxCell>
        <mxCell id="87pAXM2hmbZrz4piwAN0-24" value="TRABALHADORES" style="rounded=0;whiteSpace=wrap;html=1;" vertex="1" parent="1">
          <mxGeometry x="130" y="-320" width="160" height="90" as="geometry" />
        </mxCell>
        <mxCell id="87pAXM2hmbZrz4piwAN0-25" style="edgeStyle=orthogonalEdgeStyle;rounded=0;orthogonalLoop=1;jettySize=auto;html=1;exitX=1;exitY=0.5;exitDx=0;exitDy=0;entryX=0;entryY=0.5;entryDx=0;entryDy=0;" edge="1" parent="1" source="87pAXM2hmbZrz4piwAN0-26" target="87pAXM2hmbZrz4piwAN0-27">
          <mxGeometry relative="1" as="geometry" />
        </mxCell>
        <mxCell id="87pAXM2hmbZrz4piwAN0-26" value="TRABALHAM" style="rhombus;whiteSpace=wrap;html=1;" vertex="1" parent="1">
          <mxGeometry x="340" y="-330" width="140" height="110" as="geometry" />
        </mxCell>
        <mxCell id="87pAXM2hmbZrz4piwAN0-27" value="PRATOS" style="rounded=0;whiteSpace=wrap;html=1;" vertex="1" parent="1">
          <mxGeometry x="540" y="-320" width="160" height="90" as="geometry" />
        </mxCell>
        <mxCell id="87pAXM2hmbZrz4piwAN0-28" value="&lt;font style=&quot;font-size: 19px;&quot;&gt;&lt;b&gt;1&lt;/b&gt;&lt;/font&gt;" style="text;html=1;align=center;verticalAlign=middle;resizable=0;points=[];autosize=1;strokeColor=none;fillColor=none;" vertex="1" parent="1">
          <mxGeometry x="490" y="-320" width="30" height="40" as="geometry" />
        </mxCell>
        <mxCell id="87pAXM2hmbZrz4piwAN0-29" value="&lt;font style=&quot;font-size: 19px;&quot;&gt;&lt;b&gt;N&lt;/b&gt;&lt;/font&gt;" style="text;html=1;align=center;verticalAlign=middle;resizable=0;points=[];autosize=1;strokeColor=none;fillColor=none;" vertex="1" parent="1">
          <mxGeometry x="305" y="-320" width="40" height="40" as="geometry" />
        </mxCell>
        <mxCell id="87pAXM2hmbZrz4piwAN0-30" value="&lt;font style=&quot;font-size: 24px;&quot;&gt;&lt;b&gt;MUITOS PARA MUITOS N:N&lt;/b&gt;&lt;/font&gt;" style="text;strokeColor=none;align=center;fillColor=none;html=1;verticalAlign=middle;whiteSpace=wrap;rounded=0;" vertex="1" parent="1">
          <mxGeometry x="285" y="-160" width="270" height="90" as="geometry" />
        </mxCell>
        <mxCell id="87pAXM2hmbZrz4piwAN0-31" style="edgeStyle=orthogonalEdgeStyle;rounded=0;orthogonalLoop=1;jettySize=auto;html=1;entryX=0;entryY=0.5;entryDx=0;entryDy=0;" edge="1" parent="1" source="87pAXM2hmbZrz4piwAN0-32" target="87pAXM2hmbZrz4piwAN0-34">
          <mxGeometry relative="1" as="geometry" />
        </mxCell>
        <mxCell id="87pAXM2hmbZrz4piwAN0-32" value="VIDEOS" style="rounded=0;whiteSpace=wrap;html=1;" vertex="1" parent="1">
          <mxGeometry x="125" y="-30" width="160" height="90" as="geometry" />
        </mxCell>
        <mxCell id="87pAXM2hmbZrz4piwAN0-33" style="edgeStyle=orthogonalEdgeStyle;rounded=0;orthogonalLoop=1;jettySize=auto;html=1;exitX=1;exitY=0.5;exitDx=0;exitDy=0;entryX=0;entryY=0.5;entryDx=0;entryDy=0;" edge="1" parent="1" source="87pAXM2hmbZrz4piwAN0-34" target="87pAXM2hmbZrz4piwAN0-35">
          <mxGeometry relative="1" as="geometry" />
        </mxCell>
        <mxCell id="87pAXM2hmbZrz4piwAN0-34" value="ASSISTIDOS" style="rhombus;whiteSpace=wrap;html=1;" vertex="1" parent="1">
          <mxGeometry x="335" y="-40" width="140" height="110" as="geometry" />
        </mxCell>
        <mxCell id="87pAXM2hmbZrz4piwAN0-35" value="PESSOAS" style="rounded=0;whiteSpace=wrap;html=1;" vertex="1" parent="1">
          <mxGeometry x="535" y="-30" width="160" height="90" as="geometry" />
        </mxCell>
        <mxCell id="87pAXM2hmbZrz4piwAN0-36" value="&lt;font style=&quot;font-size: 19px;&quot;&gt;&lt;b&gt;N&lt;/b&gt;&lt;/font&gt;" style="text;html=1;align=center;verticalAlign=middle;resizable=0;points=[];autosize=1;strokeColor=none;fillColor=none;" vertex="1" parent="1">
          <mxGeometry x="480" y="-30" width="40" height="40" as="geometry" />
        </mxCell>
        <mxCell id="87pAXM2hmbZrz4piwAN0-37" value="&lt;font style=&quot;font-size: 19px;&quot;&gt;&lt;b&gt;N&lt;/b&gt;&lt;/font&gt;" style="text;html=1;align=center;verticalAlign=middle;resizable=0;points=[];autosize=1;strokeColor=none;fillColor=none;" vertex="1" parent="1">
          <mxGeometry x="300" y="-30" width="40" height="40" as="geometry" />
        </mxCell>
      </root>
    </mxGraphModel>
  </diagram>
</mxfile>
